<svg width="26" height="26" viewBox="0 0 26 26" fill="none" xmlns="http://www.w3.org/2000/svg">
<path d="M20.0195 10.0323C19.3904 8.3621 18.4731 6.81521 17.3093 5.46203C15.2953 3.13066 12.6471 1.625 10.5625 1.625C10.4385 1.62509 10.3163 1.65354 10.205 1.70817C10.0937 1.7628 9.99645 1.84217 9.92058 1.94019C9.84472 2.03821 9.79228 2.15229 9.76729 2.27369C9.7423 2.3951 9.74542 2.52061 9.77641 2.64062C10.4807 5.33203 9.02078 7.56996 7.47551 9.93891C6.19531 11.9011 4.875 13.9278 4.875 16.25C4.875 20.7299 8.52008 24.375 13 24.375C17.4799 24.375 21.125 20.7299 21.125 16.25C21.125 14.0512 20.7533 11.9595 20.0195 10.0323ZM14.6418 21.2616C14.1172 21.8202 13.4596 21.9375 13 21.9375C12.5404 21.9375 11.8828 21.8202 11.3582 21.2616C10.8337 20.703 10.5625 19.8169 10.5625 18.6875C10.5625 17.4109 11.0104 16.4389 11.443 15.4995C11.6944 14.9541 11.9509 14.399 12.1032 13.8049C12.1194 13.7403 12.1512 13.6806 12.1959 13.6312C12.2405 13.5817 12.2967 13.544 12.3593 13.5214C12.422 13.4988 12.4892 13.4919 12.5552 13.5014C12.6211 13.5109 12.6837 13.5365 12.7375 13.5759C13.2019 13.9352 13.6149 14.3566 13.9648 14.8281C14.8875 16.0469 15.4375 17.4901 15.4375 18.6875C15.4375 19.8169 15.1623 20.7071 14.6418 21.2616Z" fill="#959595"/>
</svg>
