<svg width="35" height="35" viewBox="0 0 35 35" fill="none" xmlns="http://www.w3.org/2000/svg">
<path d="M26.9493 13.5051C26.1024 11.2567 24.8676 9.17432 23.301 7.35273C20.5898 4.21436 17.0249 2.1875 14.2188 2.1875C14.0519 2.18762 13.8873 2.22592 13.7375 2.29946C13.5877 2.37301 13.4568 2.47984 13.3546 2.61179C13.2525 2.74374 13.1819 2.89731 13.1483 3.06074C13.1146 3.22417 13.1188 3.39313 13.1605 3.55469C14.1087 7.17773 12.1434 10.1903 10.0632 13.3793C8.33984 16.0207 6.5625 18.7489 6.5625 21.875C6.5625 27.9057 11.4693 32.8125 17.5 32.8125C23.5307 32.8125 28.4375 27.9057 28.4375 21.875C28.4375 18.915 27.9371 16.0993 26.9493 13.5051ZM19.7101 28.6214C19.0039 29.3733 18.1187 29.5312 17.5 29.5312C16.8813 29.5312 15.9961 29.3733 15.2899 28.6214C14.5838 27.8694 14.2188 26.6766 14.2188 25.1562C14.2188 23.4377 14.8217 22.1293 15.4041 20.8646C15.7425 20.1305 16.0877 19.3833 16.2928 18.5835C16.3145 18.4965 16.3574 18.4162 16.4175 18.3496C16.4776 18.2831 16.5532 18.2324 16.6376 18.2019C16.7219 18.1714 16.8125 18.1622 16.9012 18.175C16.99 18.1878 17.0742 18.2222 17.1466 18.2752C17.7718 18.7589 18.3277 19.3261 18.7988 19.9609C20.0409 21.6016 20.7812 23.5443 20.7812 25.1562C20.7812 26.6766 20.4107 27.8749 19.7101 28.6214Z" fill="#C0C0C0"/>
</svg>
