<svg width="26" height="26" viewBox="0 0 26 26" fill="none" xmlns="http://www.w3.org/2000/svg">
<path d="M13 18.6876C12.8586 18.6875 12.7196 18.6506 12.5968 18.5804L5.48437 14.5154C5.42257 14.4797 5.35246 14.4609 5.28109 14.4609C5.20973 14.461 5.13963 14.4798 5.07786 14.5155C5.01608 14.5512 4.96481 14.6026 4.9292 14.6645C4.89358 14.7263 4.87489 14.7964 4.87499 14.8678V18.6876C4.87487 18.8326 4.91357 18.975 4.98706 19.1C5.06055 19.225 5.16616 19.3281 5.29292 19.3985L12.6054 23.461C12.7261 23.528 12.8619 23.5632 13 23.5632C13.1381 23.5632 13.2739 23.528 13.3946 23.461L20.7071 19.3985C20.8338 19.3281 20.9394 19.225 21.0129 19.1C21.0864 18.975 21.1251 18.8326 21.125 18.6876V14.8678C21.1251 14.7964 21.1064 14.7263 21.0708 14.6645C21.0352 14.6026 20.9839 14.5512 20.9221 14.5155C20.8604 14.4798 20.7903 14.461 20.7189 14.4609C20.6475 14.4609 20.5774 14.4797 20.5156 14.5154L13.4032 18.5804C13.2804 18.6506 13.1414 18.6875 13 18.6876Z" fill="#959595"/>
<path d="M25.1835 9.67384C25.1835 9.67384 25.1835 9.66978 25.1835 9.66826C25.1704 9.53947 25.1267 9.41568 25.056 9.30721C24.9853 9.19874 24.8898 9.10873 24.7773 9.04467L13.4023 2.54467C13.2795 2.47448 13.1405 2.43756 12.9991 2.43756C12.8576 2.43756 12.7186 2.47448 12.5959 2.54467L1.22086 9.04467C1.09654 9.11574 0.993217 9.21842 0.921354 9.34229C0.84949 9.46615 0.811642 9.60681 0.811642 9.75002C0.811642 9.89322 0.84949 10.0339 0.921354 10.1577C0.993217 10.2816 1.09654 10.3843 1.22086 10.4554L12.5959 16.9554C12.7186 17.0256 12.8576 17.0625 12.9991 17.0625C13.1405 17.0625 13.2795 17.0256 13.4023 16.9554L23.4102 11.2369C23.4257 11.228 23.4433 11.2233 23.4611 11.2233C23.479 11.2233 23.4965 11.228 23.512 11.237C23.5274 11.246 23.5402 11.2588 23.5491 11.2743C23.558 11.2898 23.5627 11.3074 23.5626 11.3253V18.6647C23.5626 19.1019 23.8988 19.4772 24.336 19.499C24.4458 19.5043 24.5556 19.4872 24.6587 19.4488C24.7618 19.4104 24.856 19.3515 24.9356 19.2757C25.0152 19.1998 25.0786 19.1085 25.1219 19.0074C25.1652 18.9063 25.1876 18.7975 25.1876 18.6875V9.75002C25.1875 9.72457 25.1862 9.69915 25.1835 9.67384V9.67384Z" fill="#959595"/>
</svg>
