<svg width="35" height="35" viewBox="0 0 35 35" fill="none" xmlns="http://www.w3.org/2000/svg">
<path d="M17.5 25.1563C17.3096 25.1562 17.1225 25.1065 16.9572 25.012L7.38281 19.5399C7.29962 19.4918 7.20524 19.4665 7.10917 19.4666C7.01311 19.4666 6.91875 19.492 6.83559 19.5401C6.75243 19.5881 6.68341 19.6573 6.63547 19.7405C6.58752 19.8238 6.56236 19.9182 6.5625 20.0143V25.1563C6.56234 25.3515 6.61442 25.5432 6.71335 25.7115C6.81228 25.8797 6.95445 26.0185 7.1251 26.1133L16.9688 31.582C17.1313 31.6723 17.3141 31.7197 17.5 31.7197C17.6859 31.7197 17.8687 31.6723 18.0312 31.582L27.8749 26.1133C28.0455 26.0185 28.1877 25.8797 28.2866 25.7115C28.3856 25.5432 28.4377 25.3515 28.4375 25.1563V20.0143C28.4376 19.9182 28.4125 19.8238 28.3645 19.7405C28.3166 19.6573 28.2476 19.5881 28.1644 19.5401C28.0813 19.492 27.9869 19.4666 27.8908 19.4666C27.7948 19.4665 27.7004 19.4918 27.6172 19.5399L18.0428 25.012C17.8775 25.1065 17.6904 25.1562 17.5 25.1563Z" fill="#C0C0C0"/>
<path d="M33.9008 13.0225C33.9008 13.0225 33.9008 13.017 33.9008 13.015C33.8831 12.8416 33.8243 12.675 33.7292 12.5289C33.634 12.3829 33.5054 12.2618 33.354 12.1755L18.0414 3.42552C17.8762 3.33104 17.6891 3.28134 17.4987 3.28134C17.3083 3.28134 17.1212 3.33104 16.9559 3.42552L1.6434 12.1755C1.47605 12.2712 1.33696 12.4094 1.24022 12.5762C1.14348 12.7429 1.09253 12.9323 1.09253 13.125C1.09253 13.3178 1.14348 13.5072 1.24022 13.6739C1.33696 13.8406 1.47605 13.9789 1.6434 14.0745L16.9559 22.8245C17.1212 22.919 17.3083 22.9687 17.4987 22.9687C17.6891 22.9687 17.8762 22.919 18.0414 22.8245L31.5137 15.1266C31.5345 15.1146 31.5582 15.1083 31.5822 15.1083C31.6063 15.1083 31.6299 15.1147 31.6507 15.1267C31.6715 15.1388 31.6887 15.1561 31.7007 15.177C31.7126 15.1978 31.7189 15.2215 31.7188 15.2455V25.1255C31.7188 25.7141 32.1713 26.2193 32.7599 26.2487C32.9078 26.2558 33.0556 26.2328 33.1943 26.1811C33.3331 26.1295 33.4599 26.0501 33.5671 25.948C33.6743 25.8459 33.7596 25.723 33.8179 25.5869C33.8762 25.4509 33.9063 25.3043 33.9063 25.1563V13.125C33.9062 13.0908 33.9044 13.0566 33.9008 13.0225Z" fill="#C0C0C0"/>
</svg>
