<svg width="70" height="71" viewBox="0 0 70 71" fill="none" xmlns="http://www.w3.org/2000/svg">
<path d="M35.0001 7.44946C19.5722 7.44946 6.94946 20.0722 6.94946 35.5001C6.94946 50.9279 19.5722 63.5507 35.0001 63.5507C50.4279 63.5507 63.0507 50.9279 63.0507 35.5001C63.0507 20.0722 50.4279 7.44946 35.0001 7.44946ZM35.0001 15.8646C39.6257 15.8646 43.4152 19.6542 43.4152 24.2798C43.4152 28.9055 39.6257 32.695 35.0001 32.695C30.3744 32.695 26.5849 28.9055 26.5849 24.2798C26.5849 19.6542 30.3744 15.8646 35.0001 15.8646ZM35.0001 56.3762C27.9874 56.3762 21.8109 52.735 18.1697 47.3946C18.3046 41.7845 29.3899 38.6962 35.0001 38.6962C40.6102 38.6962 51.6956 41.7845 51.8304 47.3946C48.1892 52.7215 42.0127 56.3762 35.0001 56.3762Z" fill="#C0C0C0"/>
</svg>
