<svg width="35" height="35" viewBox="0 0 35 35" fill="none" xmlns="http://www.w3.org/2000/svg">
<path d="M32.749 7.61181C32.7337 7.36736 32.6368 7.13513 32.4738 6.95231C32.3108 6.76948 32.0912 6.64666 31.8501 6.60351C25.9691 5.54941 23.4945 4.725 18.1837 2.33515C17.6532 2.13759 17.3244 2.14101 16.8165 2.33515C11.5057 4.72773 9.03105 5.54804 3.15009 6.60351C2.90899 6.64666 2.68936 6.76948 2.52637 6.95231C2.36338 7.13513 2.26647 7.36736 2.25117 7.61181C1.98798 11.7886 2.54784 15.6782 3.9164 19.1748C5.03546 22.026 6.6933 24.635 8.79931 26.8591C11.8529 30.1014 15.2388 31.9942 16.9847 32.7106C17.3157 32.8457 17.6865 32.8457 18.0176 32.7106C19.8633 31.9642 23.1233 30.1253 26.2009 26.8577C28.3067 24.634 29.9646 22.0255 31.0838 19.1748C32.4523 15.6789 33.0122 11.7886 32.749 7.61181Z" fill="#C0C0C0"/>
</svg>
