<svg width="26" height="29" viewBox="0 0 26 29" fill="none" xmlns="http://www.w3.org/2000/svg">
<g filter="url(#filter0_d)">
<path d="M24.3277 7.65453C24.3164 7.47294 24.2444 7.30042 24.1233 7.16461C24.0022 7.0288 23.839 6.93756 23.6599 6.90551C19.2912 6.12246 17.453 5.51004 13.5078 3.73473C13.1137 3.58797 12.8694 3.59051 12.4921 3.73473C8.54694 5.51207 6.70866 6.12145 2.33995 6.90551C2.16085 6.93756 1.99769 7.0288 1.87661 7.16461C1.75553 7.30042 1.68354 7.47294 1.67218 7.65453C1.47667 10.7573 1.89257 13.6467 2.90921 16.2442C3.74051 18.3622 4.97205 20.3003 6.53651 21.9525C8.80491 24.3611 11.3201 25.7672 12.6171 26.2994C12.863 26.3997 13.1384 26.3997 13.3844 26.2994C14.7555 25.7448 17.1772 24.3788 19.4634 21.9515C21.0277 20.2996 22.2593 18.3619 23.0907 16.2442C24.1073 13.6472 24.5232 10.7573 24.3277 7.65453Z" fill="#959595"/>
</g>
<defs>
<filter id="filter0_d" x="-1" y="2" width="28" height="28" filterUnits="userSpaceOnUse" color-interpolation-filters="sRGB">
<feFlood flood-opacity="0" result="BackgroundImageFix"/>
<feColorMatrix in="SourceAlpha" type="matrix" values="0 0 0 0 0 0 0 0 0 0 0 0 0 0 0 0 0 0 127 0"/>
<feOffset dy="1"/>
<feGaussianBlur stdDeviation="0.5"/>
<feColorMatrix type="matrix" values="0 0 0 0 0 0 0 0 0 0 0 0 0 0 0 0 0 0 0.25 0"/>
<feBlend mode="normal" in2="BackgroundImageFix" result="effect1_dropShadow"/>
<feBlend mode="normal" in="SourceGraphic" in2="effect1_dropShadow" result="shape"/>
</filter>
</defs>
</svg>
